<svg width="24" height="24" viewBox="0 0 24 24" fill="none" xmlns="http://www.w3.org/2000/svg">
<g clip-path="url(#clip0_16_1738)">
<path fill-rule="evenodd" clip-rule="evenodd" d="M19.132 0.433594L23.5613 4.8125C24.1461 5.39062 24.1461 6.33594 23.5613 6.91406L21.1116 9.33594L14.5564 2.85547L17.0062 0.433594C17.591 -0.144531 18.5472 -0.144531 19.132 0.433594ZM13.8649 10.1934V10.1953C14.0467 10.375 14.1376 10.6133 14.1376 10.8477C14.1376 11.082 14.0467 11.3184 13.8649 11.5V11.502L13.863 11.5039L7.92025 17.3809H7.91828C7.86691 17.4316 7.80962 17.4746 7.75232 17.5117H7.75035C7.69108 17.5488 7.62983 17.5781 7.56661 17.5996C7.23866 17.7129 6.85736 17.6387 6.59658 17.3809H6.5946V17.3789C6.54324 17.3281 6.49977 17.2715 6.46223 17.2148V17.2129C6.4247 17.1543 6.39506 17.0937 6.37333 17.0312C6.25874 16.707 6.33382 16.3301 6.59263 16.0723V16.0703L12.5373 10.1934H12.5393C12.721 10.0137 12.9621 9.92383 13.1991 9.92383C13.4362 9.92383 13.6753 10.0137 13.859 10.1934H13.8649ZM8.98512 21.3105C7.211 21.8535 5.43886 22.3945 3.66474 22.9375C-0.50385 24.2129 -0.48607 25.0625 0.651895 21.0938L2.4438 14.8438L2.43787 14.8379L13.3157 4.08203L19.8709 10.5625L8.99105 21.3184L8.98512 21.3105ZM3.562 15.9492L7.86691 20.2051C6.70129 20.5605 5.53566 20.916 4.37201 21.2695C1.63379 22.1035 1.64564 22.6621 2.39045 20.0547L3.562 15.9492Z" fill="black"/>
</g>
<defs>
<clipPath id="clip0_16_1738">
<rect width="24" height="24" fill="white"/>
</clipPath>
</defs>
</svg>
